<svg id="Cart" xmlns="http://www.w3.org/2000/svg" width="24" height="24" viewBox="0 0 24 24">
  <path id="shape" d="M14.629,19.375a1.567,1.567,0,1,1,1.1-.459A1.511,1.511,0,0,1,14.629,19.375ZM9,19.375a1.567,1.567,0,1,1,1.1-.459A1.511,1.511,0,0,1,9,19.375ZM16.289,15H7.852a.586.586,0,0,1-.362-.127.627.627,0,0,1-.224-.322L3.809,1.856c-.093-.316-.189-.495-.293-.547a.6.6,0,0,0-.234-.078H.606a.59.59,0,0,1-.43-.176A.587.587,0,0,1,0,.625.614.614,0,0,1,.176.176.59.59,0,0,1,.606,0H3.281a2.439,2.439,0,0,1,.86.244A1.812,1.812,0,0,1,5,1.5L6.016,4.961H19.277a.547.547,0,0,1,.274.078.872.872,0,0,1,.235.2.632.632,0,0,1,.1.274.736.736,0,0,1-.02.292L16.875,14.59a.575.575,0,0,1-.225.293A.615.615,0,0,1,16.289,15ZM6.348,6.211h0L8.339,13.75h7.52l2.519-7.539H6.348Z" transform="translate(2 2)" fill="#78909c"/>
</svg>
