<svg id="Clear" xmlns="http://www.w3.org/2000/svg" width="24" height="24" viewBox="0 0 24 24">
  <path id="shape" d="M7,14a6.78,6.78,0,0,1-4.954-2.048A6.775,6.775,0,0,1,0,7,6.747,6.747,0,0,1,2.031,2.063,6.8,6.8,0,0,1,7,0a6.775,6.775,0,0,1,4.953,2.047A6.78,6.78,0,0,1,14,7a6.776,6.776,0,0,1-2.048,4.953A6.776,6.776,0,0,1,7,14ZM7,8.032H7l2.374,2.343a.257.257,0,0,0,.156.094.271.271,0,0,0,.188-.094l.656-.656a.214.214,0,0,0,.094-.188.271.271,0,0,0-.094-.187L8.032,7l2.374-2.344a.235.235,0,0,0,0-.375l-.687-.656a.268.268,0,0,0-.188-.094.252.252,0,0,0-.156.094L7,5.937,4.625,3.625a.253.253,0,0,0-.157-.094.268.268,0,0,0-.187.094l-.656.656a.235.235,0,0,0,0,.375L6,7,3.625,9.375c-.042.021-.063.073-.063.156a.253.253,0,0,0,.063.188l.656.687a.311.311,0,0,0,.375,0L7,8.032Z" transform="translate(5 5)" fill="#78909c"/>
</svg>
