<svg id="Delete" xmlns="http://www.w3.org/2000/svg" width="24" height="24" viewBox="0 0 24 24">
  <path id="shape" d="M12,14H2.151a1.081,1.081,0,0,1-.779-.322,1.054,1.054,0,0,1-.327-.777V3.123H.562a.541.541,0,0,1-.4-.165.552.552,0,0,1,0-.785.541.541,0,0,1,.4-.165H3.445V1.1A1.072,1.072,0,0,1,3.765.321,1.073,1.073,0,0,1,4.552,0h4.9a1.082,1.082,0,0,1,.78.321,1.058,1.058,0,0,1,.327.778v.91h2.869a.563.563,0,0,1,.413.165.55.55,0,0,1,.164.4.519.519,0,0,1-.172.384.568.568,0,0,1-.405.165h-.312V12.9a1.052,1.052,0,0,1-.328.777A1.078,1.078,0,0,1,12,14ZM2.151,3.123V12.9H12V3.123ZM4.537,1.114v.895h4.91V1.114ZM9.994,11.379a.541.541,0,0,1-.4-.165.55.55,0,0,1-.164-.4V5.572a.55.55,0,0,1,.164-.4.541.541,0,0,1,.4-.165.589.589,0,0,1,.561.565v5.242a.547.547,0,0,1-.164.4A.54.54,0,0,1,9.994,11.379Zm-3,0a.532.532,0,0,1-.39-.165.55.55,0,0,1-.164-.4V5.572a.55.55,0,0,1,.164-.4.532.532,0,0,1,.39-.165.5.5,0,0,1,.383.173.511.511,0,0,1,.171.392v5.242a.55.55,0,0,1-.164.4A.532.532,0,0,1,6.992,11.379Zm-3.032,0a.541.541,0,0,1-.4-.165.55.55,0,0,1-.164-.4V5.572a.55.55,0,0,1,.164-.4.541.541,0,0,1,.4-.165.507.507,0,0,1,.39.173.512.512,0,0,1,.172.392v5.242a.55.55,0,0,1-.164.4A.544.544,0,0,1,3.96,11.379Z" transform="translate(5 5)" fill="#78909c"/>
</svg>
