<svg id="Expand" xmlns="http://www.w3.org/2000/svg" width="24" height="24" viewBox="0 0 24 24">
  <path id="shape" d="M15.657,16h0l-.187-.016h-.016L11.883,16a.373.373,0,0,1-.373-.376v-.25a.381.381,0,0,1,.139-.274.435.435,0,0,1,.281-.1h2.355l-4.273-4.273a.477.477,0,0,1,0-.7.472.472,0,0,1,.7,0L15,14.294l-.015-2.427a.388.388,0,0,1,.1-.258.326.326,0,0,1,.257-.117h.266a.479.479,0,0,1,.249.1.322.322,0,0,1,.124.227v3.617c0,.011,0,.015-.007.015h-.008L16,15.64a.4.4,0,0,1-.023.14.318.318,0,0,1-.07.11.383.383,0,0,1-.117.078A.331.331,0,0,1,15.657,16ZM4.133,16,.545,15.984H.53L.343,16a.331.331,0,0,1-.132-.031.383.383,0,0,1-.117-.078.294.294,0,0,1-.07-.11A.4.4,0,0,1,0,15.64l.031-.188H.023s-.008,0-.008-.015V11.82a.327.327,0,0,1,.125-.227.479.479,0,0,1,.249-.1H.671a.326.326,0,0,1,.257.117.389.389,0,0,1,.1.258l-.016,2.427L5.3,10.02a.472.472,0,0,1,.7,0,.477.477,0,0,1,0,.7L1.731,15H4.086a.435.435,0,0,1,.281.1.385.385,0,0,1,.14.274v.25A.375.375,0,0,1,4.133,16Zm6.23-9.863a.535.535,0,0,1-.507-.509.46.46,0,0,1,.156-.353L14.285,1H11.93a.434.434,0,0,1-.281-.1.381.381,0,0,1-.139-.274V.375A.363.363,0,0,1,11.618.11.362.362,0,0,1,11.883,0l3.571.015h.016L15.657,0a.331.331,0,0,1,.132.031.383.383,0,0,1,.117.078.318.318,0,0,1,.07.11A.4.4,0,0,1,16,.36l-.031.188h.008s.007,0,.007.015V4.18a.323.323,0,0,1-.124.228.492.492,0,0,1-.249.1h-.266a.327.327,0,0,1-.257-.118.383.383,0,0,1-.1-.258L15,1.706,10.714,5.981A.454.454,0,0,1,10.363,6.137Zm-4.71,0A.454.454,0,0,1,5.3,5.981L1.013,1.706,1.03,4.133a.384.384,0,0,1-.1.258.327.327,0,0,1-.257.118H.39a.492.492,0,0,1-.249-.1A.323.323,0,0,1,.015,4.18V.563c0-.013,0-.015.008-.015H.032L0,.36A.4.4,0,0,1,.023.22.294.294,0,0,1,.094.11.383.383,0,0,1,.211.032.331.331,0,0,1,.343,0L.53.015H.545L4.133,0A.362.362,0,0,1,4.4.11a.363.363,0,0,1,.11.266V.626A.386.386,0,0,1,4.367.9a.434.434,0,0,1-.281.1H1.731L6,5.276a.477.477,0,0,1,0,.7A.454.454,0,0,1,5.653,6.137Z" transform="translate(3.984 4.016)" fill="#78909c"/>
</svg>
