<svg id="Filter" xmlns="http://www.w3.org/2000/svg" width="24" height="24" viewBox="0 0 24 24">
  <path id="shape" d="M7.173,13a.519.519,0,0,1-.407-.172L4.811,10.81a.511.511,0,0,1-.172-.392V6.32L.371,2.206a1.348,1.348,0,0,1-.344-.665A1.284,1.284,0,0,1,.1.79,1.212,1.212,0,0,1,.574.212,1.3,1.3,0,0,1,1.293,0h9.413a1.3,1.3,0,0,1,.719.212A1.208,1.208,0,0,1,11.9.79a1.294,1.294,0,0,1-.289,1.416L7.736,6.289v6.148a.528.528,0,0,1-.359.532A.759.759,0,0,1,7.173,13ZM1.293,1.127a.162.162,0,0,0-.157.1.147.147,0,0,0,.031.18L5.609,5.694a.533.533,0,0,1,.157.391v4.1l.844.907V6.054a.533.533,0,0,1,.157-.391l4.05-4.255a.156.156,0,0,0,.039-.18.147.147,0,0,0-.149-.1Z" transform="translate(6 6)" fill="#78909c"/>
</svg>
