<svg id="Menu" xmlns="http://www.w3.org/2000/svg" width="24" height="24" viewBox="0 0 24 24">
  <path id="shape" d="M17.225,16H.775a.778.778,0,0,1-.306-.061.706.706,0,0,1-.253-.184,1.1,1.1,0,0,1-.162-.3A1.079,1.079,0,0,1,0,15.1a1.1,1.1,0,0,1,.054-.347.82.82,0,0,1,.162-.286.706.706,0,0,1,.253-.184.778.778,0,0,1,.306-.061h16.45a.778.778,0,0,1,.306.061.706.706,0,0,1,.253.184.82.82,0,0,1,.162.286A1.1,1.1,0,0,1,18,15.1a1.079,1.079,0,0,1-.054.358,1.1,1.1,0,0,1-.162.3.706.706,0,0,1-.253.184A.778.778,0,0,1,17.225,16Zm0-7.121H.775a.764.764,0,0,1-.306-.061.693.693,0,0,1-.253-.184.817.817,0,0,1-.162-.287,1.147,1.147,0,0,1,0-.7.82.82,0,0,1,.162-.286.693.693,0,0,1,.253-.184A.764.764,0,0,1,.775,7.12h16.45a.764.764,0,0,1,.306.062.693.693,0,0,1,.253.184.82.82,0,0,1,.162.286,1.147,1.147,0,0,1,0,.7.817.817,0,0,1-.162.287.693.693,0,0,1-.253.184A.764.764,0,0,1,17.225,8.879Zm0-7.1H.775a.778.778,0,0,1-.306-.061.706.706,0,0,1-.253-.184,1.1,1.1,0,0,1-.162-.3A1.076,1.076,0,0,1,0,.88,1.108,1.108,0,0,1,.054.532.82.82,0,0,1,.216.246.706.706,0,0,1,.469.061.778.778,0,0,1,.775,0h16.45a.778.778,0,0,1,.306.061.706.706,0,0,1,.253.185.82.82,0,0,1,.162.286A1.108,1.108,0,0,1,18,.88a1.076,1.076,0,0,1-.054.357,1.1,1.1,0,0,1-.162.3.706.706,0,0,1-.253.184A.778.778,0,0,1,17.225,1.78Z" transform="translate(3 4)" fill="#78909c"/>
</svg>
