<svg id="Search" xmlns="http://www.w3.org/2000/svg" width="24" height="24" viewBox="0 0 24 24">
  <path id="shape" d="M13.564,14a.434.434,0,0,1-.314-.137L9.024,9.6a5.532,5.532,0,0,1-1.636.985,5.453,5.453,0,0,1-4.062-.076A5.609,5.609,0,0,1,1.589,9.338,5.381,5.381,0,0,1,.423,7.6,5.437,5.437,0,0,1,0,5.468,5.433,5.433,0,0,1,1.589,1.6,5.608,5.608,0,0,1,3.326.431a5.426,5.426,0,0,1,4.239,0A5.623,5.623,0,0,1,9.3,1.6a5.492,5.492,0,0,1,1.172,1.737,5.477,5.477,0,0,1,.089,4.026,5.709,5.709,0,0,1-.927,1.606l4.239,4.28a.446.446,0,0,1,0,.616A.433.433,0,0,1,13.564,14ZM5.453.861a4.482,4.482,0,0,0-1.793.363A4.6,4.6,0,0,0,2.2,2.215,4.776,4.776,0,0,0,1.22,3.677,4.473,4.473,0,0,0,.859,5.468,4.467,4.467,0,0,0,1.22,7.259,4.771,4.771,0,0,0,2.2,8.723a4.6,4.6,0,0,0,1.459.991,4.577,4.577,0,0,0,3.571,0A4.583,4.583,0,0,0,8.69,8.723a4.79,4.79,0,0,0,.982-1.463,4.481,4.481,0,0,0,.361-1.791,4.487,4.487,0,0,0-.361-1.791A4.8,4.8,0,0,0,8.69,2.215a4.583,4.583,0,0,0-1.459-.991A4.446,4.446,0,0,0,5.453.861Z" transform="translate(5 5)" fill="#78909c" stroke="#78909c" stroke-miterlimit="10" stroke-width="0.5"/>
</svg>
